<svg xmlns="http://www.w3.org/2000/svg" width="53.611" height="32.167" viewBox="0 0 53.611 32.167">
  <g id="mastercard" transform="translate(0 -100.8)">
    <path id="Path_14" data-name="Path 14" d="M233.767,116.883a16.083,16.083,0,0,1-32.167,0h0a16.083,16.083,0,1,1,32.167,0Z" transform="translate(-180.156 0)" fill="#ffb600"/>
    <path id="Path_15" data-name="Path 15" d="M217.683,100.8a16.125,16.125,0,0,1,16.083,16.083h0a16.083,16.083,0,0,1-32.167,0" transform="translate(-180.156)" fill="#f7981d"/>
    <path id="Path_16" data-name="Path 16" d="M352.8,100.8a16.125,16.125,0,0,1,16.083,16.083h0A16.07,16.07,0,0,1,352.8,132.967" transform="translate(-315.272)" fill="#ff8500"/>
    <path id="Path_17" data-name="Path 17" d="M15.913,100.8a16.084,16.084,0,0,0,.17,32.167,16.271,16.271,0,0,0,10.807-4.17h0a15.29,15.29,0,0,0,1.617-1.7H25.189A19.628,19.628,0,0,1,24,125.478h5.7a10.9,10.9,0,0,0,.936-1.7H23.061a10.142,10.142,0,0,1-.681-1.7h8.85a16.9,16.9,0,0,0,.851-5.106,21.965,21.965,0,0,0-.34-3.4H21.87a12.441,12.441,0,0,1,.425-1.7h8.85a10.142,10.142,0,0,0-.681-1.7H22.976a16.877,16.877,0,0,1,.936-1.7h5.7a8.093,8.093,0,0,0-1.276-1.7H25.189a14.5,14.5,0,0,1,1.617-1.617A15.7,15.7,0,0,0,16,100.97C16,100.8,16,100.8,15.913,100.8Z" fill="#ff5050"/>
    <path id="Path_18" data-name="Path 18" d="M0,118.313A16.07,16.07,0,0,0,16.083,134.4a16.271,16.271,0,0,0,10.807-4.17h0a15.29,15.29,0,0,0,1.617-1.7H25.189A19.632,19.632,0,0,1,24,126.908h5.7a10.9,10.9,0,0,0,.936-1.7H23.061a10.142,10.142,0,0,1-.681-1.7h8.85a16.9,16.9,0,0,0,.851-5.106,21.965,21.965,0,0,0-.34-3.4H21.87a12.441,12.441,0,0,1,.425-1.7h8.85a10.142,10.142,0,0,0-.681-1.7H22.976a16.876,16.876,0,0,1,.936-1.7h5.7a8.093,8.093,0,0,0-1.276-1.7H25.189a14.5,14.5,0,0,1,1.617-1.617A15.7,15.7,0,0,0,16,102.4h-.085" transform="translate(0 -1.43)" fill="#e52836"/>
    <path id="Path_19" data-name="Path 19" d="M149.77,134.4a16.271,16.271,0,0,0,10.807-4.17h0a15.29,15.29,0,0,0,1.617-1.7h-3.319a19.628,19.628,0,0,1-1.191-1.617h5.7a10.9,10.9,0,0,0,.936-1.7h-7.574a10.143,10.143,0,0,1-.681-1.7h8.85a16.9,16.9,0,0,0,.851-5.106,21.967,21.967,0,0,0-.34-3.4h-9.871a12.439,12.439,0,0,1,.425-1.7h8.85a10.141,10.141,0,0,0-.681-1.7h-7.489a16.873,16.873,0,0,1,.936-1.7h5.7a8.093,8.093,0,0,0-1.276-1.7h-3.149a14.5,14.5,0,0,1,1.617-1.617,15.7,15.7,0,0,0-10.807-4.17H149.6" transform="translate(-133.687 -1.43)" fill="#cb2026"/>
    <g id="Group_2" data-name="Group 2" transform="translate(1.532 112.714)">
      <path id="Path_20" data-name="Path 20" d="M184.068,227.489l.255-1.447a3.686,3.686,0,0,1-.425.085c-.6,0-.681-.34-.6-.511l.511-2.978h.936l.255-1.617h-.851l.17-1.021h-1.7s-1.021,5.616-1.021,6.3a1.277,1.277,0,0,0,1.362,1.447A2.613,2.613,0,0,0,184.068,227.489Z" transform="translate(-163.815 -219.234)" fill="#fff"/>
      <path id="Path_21" data-name="Path 21" d="M210.4,232.539a2.707,2.707,0,0,0,2.978,2.978,4.418,4.418,0,0,0,1.787-.255l.34-1.617a5.1,5.1,0,0,1-1.787.425c-1.872,0-1.532-1.362-1.532-1.362h3.489a11.034,11.034,0,0,0,.255-1.532,2.306,2.306,0,0,0-2.468-2.468C211.676,228.539,210.4,230.411,210.4,232.539Zm2.978-2.468c.936,0,.766,1.106.766,1.191h-1.872C212.272,231.177,212.442,230.071,213.378,230.071Z" transform="translate(-189.551 -227.008)" fill="#fff"/>
      <path id="Path_22" data-name="Path 22" d="M300.68,221.054l.34-1.872a4.182,4.182,0,0,1-1.447.425c-1.191,0-1.7-.936-1.7-1.957,0-2.042,1.021-3.149,2.213-3.149a2.842,2.842,0,0,1,1.532.511l.255-1.787a5.983,5.983,0,0,0-1.957-.425c-1.957,0-3.914,1.7-3.914,4.936,0,2.127,1.021,3.574,3.064,3.574A7.637,7.637,0,0,0,300.68,221.054Z" transform="translate(-266.046 -212.8)" fill="#fff"/>
      <path id="Path_23" data-name="Path 23" d="M89.634,227.2a6.027,6.027,0,0,0-2.042.34l-.255,1.447a5.03,5.03,0,0,1,1.872-.34c.6,0,1.106.085,1.106.6,0,.34-.085.425-.085.425h-.766c-1.447,0-3.063.6-3.063,2.553,0,1.532,1.021,1.872,1.617,1.872a2.557,2.557,0,0,0,1.787-.766l-.085.681h1.532l.681-4.68A2.017,2.017,0,0,0,89.634,227.2Zm.34,3.829c0,.255-.17,1.617-1.191,1.617a.664.664,0,0,1-.681-.681c0-.426.255-1.021,1.532-1.021A1.342,1.342,0,0,0,89.974,231.029Z" transform="translate(-78.741 -225.668)" fill="#fff"/>
      <path id="Path_24" data-name="Path 24" d="M137.157,233.378a2.181,2.181,0,0,0,2.553-2.213c0-2.127-2.042-1.7-2.042-2.553,0-.425.34-.6.936-.6.255,0,1.191.085,1.191.085l.255-1.532a6.464,6.464,0,0,0-1.617-.17c-1.276,0-2.553.511-2.553,2.213,0,1.957,2.127,1.787,2.127,2.553,0,.511-.6.6-1.021.6a5.565,5.565,0,0,1-1.532-.255l-.255,1.532C135.285,233.208,135.711,233.378,137.157,233.378Z" transform="translate(-122.35 -224.953)" fill="#fff"/>
      <path id="Path_25" data-name="Path 25" d="M432.05,214.4l-.34,2.3a2.36,2.36,0,0,0-1.617-.851c-1.532,0-2.893,1.872-2.893,4.085,0,1.362.681,2.808,2.127,2.808a2.272,2.272,0,0,0,1.617-.681l-.085.6h1.7l1.276-8.169Zm-.766,4.51c0,.936-.426,2.127-1.362,2.127-.6,0-.936-.511-.936-1.362,0-1.362.6-2.213,1.362-2.213C430.944,217.463,431.285,217.889,431.285,218.91Z" transform="translate(-383.29 -214.23)" fill="#fff"/>
      <path id="Path_26" data-name="Path 26" d="M16.017,222.569l1.021-6.127.17,6.127H18.4l2.213-6.127-.936,6.127h1.787l1.362-8.169H20.016l-1.7,5.021-.085-5.021H15.762L14.4,222.569Z" transform="translate(-14.4 -214.23)" fill="#fff"/>
      <path id="Path_27" data-name="Path 27" d="M261.872,235.438c.511-2.808.6-5.106,1.787-4.68a6.679,6.679,0,0,1,.6-1.957h-.34c-.766,0-1.362,1.021-1.362,1.021l.17-.936h-1.617L260,235.523h1.872Z" transform="translate(-233.875 -227.098)" fill="#fff"/>
      <path id="Path_28" data-name="Path 28" d="M349.634,227.2a6.027,6.027,0,0,0-2.042.34l-.255,1.447a5.03,5.03,0,0,1,1.872-.34c.6,0,1.106.085,1.106.6,0,.34-.085.425-.085.425h-.766c-1.447,0-3.064.6-3.064,2.553,0,1.532,1.021,1.872,1.617,1.872a2.557,2.557,0,0,0,1.787-.766l-.085.681h1.532l.681-4.68A1.987,1.987,0,0,0,349.634,227.2Zm.425,3.829c0,.255-.17,1.617-1.191,1.617a.664.664,0,0,1-.681-.681c0-.426.255-1.021,1.532-1.021C349.974,231.029,349.974,231.029,350.059,231.029Z" transform="translate(-311.085 -225.668)" fill="#fff"/>
      <path id="Path_29" data-name="Path 29" d="M396.272,235.438c.511-2.808.6-5.106,1.787-4.68a6.678,6.678,0,0,1,.6-1.957h-.34c-.766,0-1.362,1.021-1.362,1.021l.17-.936h-1.617l-1.106,6.638h1.872Z" transform="translate(-353.979 -227.098)" fill="#fff"/>
    </g>
    <g id="Group_3" data-name="Group 3" transform="translate(1.532 112.714)">
      <path id="Path_30" data-name="Path 30" d="M180,226.3a1.277,1.277,0,0,0,1.362,1.447,3.239,3.239,0,0,0,1.276-.255l.255-1.447a3.685,3.685,0,0,1-.425.085c-.6,0-.681-.34-.6-.511l.511-2.978h.936l.255-1.617h-.851l.17-1.021" transform="translate(-162.385 -219.234)" fill="#dce5e5"/>
      <path id="Path_31" data-name="Path 31" d="M218.4,232.539c0,2.383.766,2.978,2.127,2.978a4.418,4.418,0,0,0,1.787-.255l.34-1.617a5.1,5.1,0,0,1-1.787.425c-1.872,0-1.532-1.362-1.532-1.362h3.489a11.033,11.033,0,0,0,.255-1.532,2.306,2.306,0,0,0-2.468-2.468C218.825,228.539,218.4,230.411,218.4,232.539Zm2.127-2.468c.936,0,1.106,1.106,1.106,1.191h-2.213C219.421,231.177,219.591,230.071,220.527,230.071Z" transform="translate(-196.7 -227.008)" fill="#dce5e5"/>
      <path id="Path_32" data-name="Path 32" d="M307.829,221.054l.34-1.872a4.182,4.182,0,0,1-1.447.425c-1.191,0-1.7-.936-1.7-1.957,0-2.042,1.021-3.149,2.213-3.149a2.842,2.842,0,0,1,1.532.511l.255-1.787a5.983,5.983,0,0,0-1.957-.425c-1.957,0-3.063,1.7-3.063,4.936,0,2.127.17,3.574,2.213,3.574A7.637,7.637,0,0,0,307.829,221.054Z" transform="translate(-273.195 -212.8)" fill="#dce5e5"/>
      <path id="Path_33" data-name="Path 33" d="M87.336,230.5a5.03,5.03,0,0,1,1.872-.34c.6,0,1.106.085,1.106.6,0,.34-.085.425-.085.425h-.766c-1.447,0-3.063.6-3.063,2.553,0,1.532,1.021,1.872,1.617,1.872a2.557,2.557,0,0,0,1.787-.766l-.085.681h1.532l.681-4.68c0-1.957-1.7-2.042-2.383-2.042m1.276,3.659a2.786,2.786,0,0,1-2.042,1.617.664.664,0,0,1-.681-.681c0-.425.255-1.021,1.532-1.021A6.952,6.952,0,0,0,90.825,232.459Z" transform="translate(-78.741 -227.098)" fill="#dce5e5"/>
      <path id="Path_34" data-name="Path 34" d="M136,233.208a7.2,7.2,0,0,0,1.957.17,2.181,2.181,0,0,0,2.553-2.213c0-2.127-2.042-1.7-2.042-2.553,0-.425.34-.6.936-.6.255,0,1.191.085,1.191.085l.255-1.532a6.464,6.464,0,0,0-1.617-.17c-1.276,0-1.7.511-1.7,2.213,0,1.957,1.276,1.787,1.276,2.553,0,.511-.6.6-1.021.6" transform="translate(-123.065 -224.953)" fill="#dce5e5"/>
      <path id="Path_35" data-name="Path 35" d="M438.807,217.413a2.36,2.36,0,0,0-1.617-.851c-1.532,0-2.042,1.872-2.042,4.085,0,1.362-.17,2.808,1.276,2.808a2.272,2.272,0,0,0,1.617-.681l-.085.6h1.7l1.276-8.169m-2.213,4.425c0,.936-.766,2.127-1.7,2.127-.6,0-.936-.511-.936-1.362,0-1.362.6-2.213,1.362-2.213A1.3,1.3,0,0,1,438.722,219.625Z" transform="translate(-390.387 -214.945)" fill="#dce5e5"/>
      <path id="Path_36" data-name="Path 36" d="M16.017,222.569l1.021-6.127.17,6.127H18.4l2.213-6.127-.936,6.127h1.787l1.362-8.169H20.7l-2.383,5.021-.085-5.021h-.936L14.4,222.569Z" transform="translate(-14.4 -214.23)" fill="#dce5e5"/>
      <path id="Path_37" data-name="Path 37" d="M260.8,235.438h1.787c.511-2.808.6-5.106,1.787-4.68a6.679,6.679,0,0,1,.6-1.957h-.34c-.766,0-1.362,1.021-1.362,1.021l.17-.936" transform="translate(-234.59 -227.098)" fill="#dce5e5"/>
      <path id="Path_38" data-name="Path 38" d="M347.336,230.5a5.03,5.03,0,0,1,1.872-.34c.6,0,1.106.085,1.106.6,0,.34-.085.425-.085.425h-.766c-1.447,0-3.063.6-3.063,2.553,0,1.532,1.021,1.872,1.617,1.872a2.557,2.557,0,0,0,1.787-.766l-.085.681h1.532l.681-4.68c0-1.957-1.7-2.042-2.383-2.042m1.276,3.659a2.786,2.786,0,0,1-2.042,1.617.664.664,0,0,1-.681-.681c0-.425.255-1.021,1.532-1.021A7.486,7.486,0,0,0,350.825,232.459Z" transform="translate(-311.085 -227.098)" fill="#dce5e5"/>
      <path id="Path_39" data-name="Path 39" d="M395.2,235.438h1.787c.511-2.808.6-5.106,1.787-4.68a6.679,6.679,0,0,1,.6-1.957h-.34c-.766,0-1.362,1.021-1.362,1.021l.17-.936" transform="translate(-354.694 -227.098)" fill="#dce5e5"/>
    </g>
  </g>
</svg>
