<svg xmlns="http://www.w3.org/2000/svg" width="114" height="29.133" viewBox="0 0 114 29.133">
  <g id="paypal" transform="translate(0 -187.6)">
    <path id="Path_5" data-name="Path 5" d="M356.79,221.2h-6.152a1.2,1.2,0,0,0-.9.724L347.2,237.848a.48.48,0,0,0,.543.543H351a.48.48,0,0,0,.543-.543l.724-4.524a.828.828,0,0,1,.9-.724h1.99q6.243,0,7.057-5.971a4.743,4.743,0,0,0-.724-3.981,7.3,7.3,0,0,0-4.7-1.448m.724,5.971c-.362,2.171-1.99,2.171-3.619,2.171H352.81l.724-4.162c0-.181.181-.362.543-.362h.362c1.086,0,2.171,0,2.714.724.362.181.362.724.362,1.629" transform="translate(-268.667 -26)" fill="#139ad6"/>
    <g id="Group_1" data-name="Group 1" transform="translate(34.2 195.2)">
      <path id="Path_6" data-name="Path 6" d="M160.79,221.2h-6.152a1.2,1.2,0,0,0-.9.724L151.2,237.848a.48.48,0,0,0,.543.543h2.9a1.2,1.2,0,0,0,.9-.724l.724-4.343a.828.828,0,0,1,.9-.724h1.99q6.243,0,7.057-5.971a4.743,4.743,0,0,0-.724-3.981,6.955,6.955,0,0,0-4.7-1.448m.724,5.971c-.362,2.171-1.99,2.171-3.619,2.171h-.9l.724-4.162c0-.181.181-.362.543-.362h.362c1.086,0,2.171,0,2.714.724a1.938,1.938,0,0,1,.181,1.629" transform="translate(-151.2 -221.2)" fill="#263b80"/>
      <path id="Path_7" data-name="Path 7" d="M227.946,245.562h-2.9c-.181,0-.543.181-.543.362l-.181.9-.181-.362a4.257,4.257,0,0,0-3.438-1.267,6.953,6.953,0,0,0-6.7,5.971A5.394,5.394,0,0,0,215.1,255.7a4.56,4.56,0,0,0,3.8,1.448,5.784,5.784,0,0,0,4.162-1.629l-.181.9a.48.48,0,0,0,.543.543h2.714a1.2,1.2,0,0,0,.9-.724l1.629-10.133c-.181-.181-.543-.543-.724-.543m-4.162,5.79a3.5,3.5,0,0,1-3.438,2.9,2.894,2.894,0,0,1-1.99-.724,3.859,3.859,0,0,1-.543-2.171,3.228,3.228,0,0,1,5.248-2.171,3.159,3.159,0,0,1,.724,2.171" transform="translate(-199.717 -239.771)" fill="#263b80"/>
    </g>
    <path id="Path_8" data-name="Path 8" d="M423.146,245.562h-2.9c-.181,0-.543.181-.543.362l-.181.9-.181-.362a4.256,4.256,0,0,0-3.438-1.267,6.953,6.953,0,0,0-6.7,5.971A5.394,5.394,0,0,0,410.3,255.7a4.56,4.56,0,0,0,3.8,1.448,5.784,5.784,0,0,0,4.162-1.629l-.181.9a.48.48,0,0,0,.543.543h2.714a1.2,1.2,0,0,0,.9-.724l1.629-10.133c-.181-.181-.362-.543-.724-.543m-4.162,5.79a3.5,3.5,0,0,1-3.438,2.9,2.894,2.894,0,0,1-1.99-.724,3.859,3.859,0,0,1-.543-2.171,3.228,3.228,0,0,1,5.248-2.171,2.077,2.077,0,0,1,.724,2.171" transform="translate(-316.565 -44.571)" fill="#139ad6"/>
    <path id="Path_9" data-name="Path 9" d="M297.933,246.8h-3.076a.94.94,0,0,0-.724.362l-3.981,6.152-1.81-5.79a.836.836,0,0,0-.9-.543h-2.9c-.362,0-.543.362-.543.724l3.257,9.59-3.076,4.343c-.181.362,0,.9.362.9h2.9a.94.94,0,0,0,.724-.362l9.952-14.3c.543-.543.181-1.086-.181-1.086" transform="translate(-219.762 -45.81)" fill="#263b80"/>
    <path id="Path_10" data-name="Path 10" d="M477.733,222.119,475.2,238.4a.48.48,0,0,0,.543.543h2.533a1.2,1.2,0,0,0,.9-.724l2.533-15.924a.48.48,0,0,0-.543-.543h-2.9c-.181-.181-.362,0-.543.362" transform="translate(-367.714 -26.376)" fill="#139ad6"/>
    <path id="Path_11" data-name="Path 11" d="M20.81,189.771c-1.267-1.448-3.619-2.171-6.876-2.171H4.886a1.552,1.552,0,0,0-1.267,1.086L0,212.39a.828.828,0,0,0,.724.9h5.61l1.448-8.867v.362A1.552,1.552,0,0,1,9.048,203.7h2.714c5.248,0,9.229-2.171,10.5-8.143v-.543h0c.181-2.352-.181-3.8-1.448-5.248" fill="#263b80"/>
    <path id="Path_12" data-name="Path 12" d="M41.886,220.4h0v.543c-1.267,6.152-5.248,8.143-10.5,8.143H28.676a1.552,1.552,0,0,0-1.267,1.086L25.6,241.21a.663.663,0,0,0,.724.724h4.7a1.013,1.013,0,0,0,1.086-.9v-.181l.9-5.61v-.362a1.013,1.013,0,0,1,1.086-.9h.724c4.524,0,8.143-1.81,9.048-7.238.362-2.171.181-4.162-.9-5.429a1.853,1.853,0,0,0-1.086-.9" transform="translate(-19.81 -25.381)" fill="#139ad6"/>
    <path id="Path_13" data-name="Path 13" d="M47.429,216.143c-.181,0-.362-.181-.543-.181a.665.665,0,0,1-.543-.181,9.559,9.559,0,0,0-2.352-.181H36.933a.665.665,0,0,0-.543.181,1,1,0,0,0-.543.9L34.4,226.1v.362a1.552,1.552,0,0,1,1.267-1.086h2.714c5.248,0,9.229-2.171,10.5-8.143a.665.665,0,0,1,.181-.543c-.362-.181-.543-.362-.9-.362-.543-.181-.543-.181-.724-.181" transform="translate(-26.619 -21.667)" fill="#232c65"/>
  </g>
</svg>
