<svg xmlns="http://www.w3.org/2000/svg" width="68.607" height="20.8" viewBox="0 0 68.607 20.8">
  <g id="visa" transform="translate(0 -175.6)">
    <path id="Path_40" data-name="Path 40" d="M184.8,200l3.485-19.6h5.445L190.354,200Z" transform="translate(-159.644 -4.147)" fill="#3c58bf"/>
    <path id="Path_41" data-name="Path 41" d="M184.8,200l4.465-19.6h4.465L190.354,200Z" transform="translate(-159.644 -4.147)" fill="#293688"/>
    <path id="Path_42" data-name="Path 42" d="M264.662,176.471a13.813,13.813,0,0,0-5.009-.871c-5.445,0-9.365,2.723-9.365,6.643,0,2.94,2.723,4.465,4.9,5.445s2.831,1.633,2.831,2.5c0,1.307-1.742,1.96-3.267,1.96a11.837,11.837,0,0,1-5.227-1.089l-.762-.327L248,195.2a17.658,17.658,0,0,0,6.207,1.089c5.772,0,9.583-2.723,9.583-6.861,0-2.287-1.416-4.029-4.683-5.445-1.96-.98-3.158-1.525-3.158-2.5,0-.871.98-1.742,3.158-1.742a9.989,9.989,0,0,1,4.138.762l.544.218.871-4.247Z" transform="translate(-214.241)" fill="#3c58bf"/>
    <path id="Path_43" data-name="Path 43" d="M264.662,176.471a13.813,13.813,0,0,0-5.009-.871c-5.445,0-8.385,2.723-8.385,6.643,0,2.94,1.742,4.465,3.92,5.445s2.831,1.633,2.831,2.5c0,1.307-1.742,1.96-3.267,1.96a11.837,11.837,0,0,1-5.227-1.089l-.762-.327L248,195.2a17.658,17.658,0,0,0,6.207,1.089c5.772,0,9.583-2.723,9.583-6.861,0-2.287-1.416-4.029-4.683-5.445-1.96-.98-3.158-1.525-3.158-2.5,0-.871.98-1.742,3.158-1.742a9.989,9.989,0,0,1,4.138.762l.544.218.871-4.247Z" transform="translate(-214.241)" fill="#293688"/>
    <path id="Path_44" data-name="Path 44" d="M369.4,180.4c-1.307,0-2.287.109-2.831,1.416L358.4,200h5.881l1.089-3.267h6.97l.653,3.267h5.227l-4.574-19.6Zm-2.5,13.068c.327-.98,2.178-5.772,2.178-5.772s.436-1.2.762-1.96l.327,1.851s1.089,4.9,1.307,5.989h-4.574Z" transform="translate(-309.613 -4.147)" fill="#3c58bf"/>
    <path id="Path_45" data-name="Path 45" d="M370.706,180.4c-1.307,0-2.287.109-2.831,1.416L358.4,200h5.881l1.089-3.267h6.97l.653,3.267h5.227l-4.574-19.6Zm-3.812,13.068c.436-1.089,2.178-5.772,2.178-5.772s.436-1.2.762-1.96l.327,1.851s1.089,4.9,1.307,5.989h-4.574Z" transform="translate(-309.613 -4.147)" fill="#293688"/>
    <path id="Path_46" data-name="Path 46" d="M59.367,194.813l-.545-2.831a15.786,15.786,0,0,0-7.623-8.6L56.1,200.8h5.881L70.8,181.2H64.921Z" transform="translate(-44.23 -4.838)" fill="#3c58bf"/>
    <path id="Path_47" data-name="Path 47" d="M59.367,194.813l-.545-2.831a15.786,15.786,0,0,0-7.623-8.6L56.1,200.8h5.881L70.8,181.2H66.01Z" transform="translate(-44.23 -4.838)" fill="#293688"/>
    <path id="Path_48" data-name="Path 48" d="M0,180.4l.98.218c6.97,1.633,11.761,5.772,13.612,10.672l-1.96-9.256c-.327-1.307-1.307-1.633-2.5-1.633Z" transform="translate(0 -4.147)" fill="#ffbc00"/>
    <path id="Path_49" data-name="Path 49" d="M0,180.4H0c6.97,1.633,12.741,5.881,14.593,10.781l-1.851-7.732a2.658,2.658,0,0,0-2.614-2.069Z" transform="translate(0 -4.147)" fill="#f7981d"/>
    <path id="Path_50" data-name="Path 50" d="M0,180.4H0c6.97,1.633,12.741,5.881,14.593,10.781l-1.307-4.247c-.327-1.307-.762-2.614-2.287-3.158Z" transform="translate(0 -4.147)" fill="#ed7c00"/>
    <g id="Group_4" data-name="Group 4" transform="translate(7.078 178.431)">
      <path id="Path_51" data-name="Path 51" d="M65.5,207.29l-3.7-3.7-1.742,4.138L59.623,205A15.786,15.786,0,0,0,52,196.4l4.9,17.424h5.881Z" transform="translate(-52 -196.4)" fill="#051244"/>
      <path id="Path_52" data-name="Path 52" d="M190.354,293.992l-4.683-4.792-.871,4.792Z" transform="translate(-166.723 -276.568)" fill="#051244"/>
      <path id="Path_53" data-name="Path 53" d="M257.474,274.8h0c.436.436.653.762.544,1.2,0,1.307-1.742,1.96-3.267,1.96a11.837,11.837,0,0,1-5.227-1.089l-.762-.327L248,281.007a17.657,17.657,0,0,0,6.207,1.089c3.485,0,6.316-.98,7.95-2.723Z" transform="translate(-221.32 -264.128)" fill="#051244"/>
      <path id="Path_54" data-name="Path 54" d="M364,233.866h5.118l1.089-3.267h6.97l.653,3.267h5.227l-1.851-7.95-6.534-6.316.327,1.742s1.089,4.9,1.307,5.989h-4.574c.436-1.089,2.178-5.772,2.178-5.772s.436-1.2.762-1.96" transform="translate(-321.529 -216.442)" fill="#051244"/>
    </g>
  </g>
</svg>
